<svg data-v-fde0c5aa="" xmlns="http://www.w3.org/2000/svg" viewBox="0 0 300 300" class="font"><!----><defs data-v-fde0c5aa=""><!----></defs><rect data-v-fde0c5aa="" fill="#FDF7EC" x="0" y="0" width="300px" height="300px" class="logo-background-square"></rect><defs data-v-fde0c5aa=""><linearGradient data-v-fde0c5aa="" gradientTransform="rotate(25)" id="6dfc66f4-16d0-4a17-8e71-2c13464e1122" x1="0%" y1="0%" x2="100%" y2="0%"><stop data-v-fde0c5aa="" offset="0%" stop-color="#E56500" stop-opacity="1"></stop><stop data-v-fde0c5aa="" offset="100%" stop-color="#EBC51D" stop-opacity="1"></stop></linearGradient></defs><g data-v-fde0c5aa="" id="bd433a9b-f881-4095-9b7d-b190b5d828f4" fill="url(#6dfc66f4-16d0-4a17-8e71-2c13464e1122)" transform="matrix(12.802607064981828,0,0,12.802607064981828,34.03398522676127,46.04282751892058)"><path d="M2.62 4.56L2.62 4.56L2.62 4.56Q2.84 4.56 2.97 4.73L2.97 4.73L2.97 4.73Q3.09 4.90 3.15 5.14L3.15 5.14L3.15 5.14Q3.21 5.38 3.21 5.62L3.21 5.62L3.21 5.62Q3.22 5.87 3.22 6.01L3.22 6.01L3.22 6.01Q3.22 7.20 2.74 8.68L2.74 8.68L2.74 8.68Q2.48 9.56 2.20 9.97L2.20 9.97L2.20 9.97Q1.92 10.39 1.58 10.39L1.58 10.39L1.58 10.39Q1.02 10.39 0.73 9.53L0.73 9.53L0.73 9.53Q0.49 8.78 0.49 7.56L0.49 7.56L0.49 6.08L0.49 6.08Q0.43 5.85 0.52 5.71L0.52 5.71L0.52 5.70L0.53 5.68L0.53 5.68Q0.56 5.64 0.64 5.59L0.64 5.59L0.64 5.59Q0.71 5.54 0.85 5.54L0.85 5.54L0.85 5.54Q1.53 5.57 1.53 6.23L1.53 6.23L1.53 6.23Q1.53 6.38 1.51 6.58L1.51 6.58L1.51 6.58Q1.50 6.78 1.46 7.01L1.46 7.01L1.46 7.01Q1.43 7.25 1.41 7.43L1.41 7.43L1.41 7.43Q1.40 7.62 1.40 7.77L1.40 7.77L1.40 7.77Q1.40 8.25 1.43 8.55L1.43 8.55L1.43 8.55Q1.46 8.85 1.49 9.03L1.49 9.03L1.49 9.03Q1.53 9.21 1.56 9.30L1.56 9.30L1.56 9.30Q1.60 9.38 1.62 9.41L1.62 9.41L1.62 9.41Q1.67 9.34 1.77 9.09L1.77 9.09L1.77 9.09Q1.88 8.83 2.07 8.19L2.07 8.19L2.07 8.19Q2.24 7.56 2.34 7.11L2.34 7.11L2.34 7.11Q2.44 6.65 2.42 6.38L2.42 6.38L2.42 6.38Q2.45 5.67 2.40 5.36L2.40 5.36L2.40 5.36Q2.35 5.05 2.34 5.01L2.34 5.01L2.34 5.01Q2.31 4.93 2.31 4.84L2.31 4.84L2.31 4.84Q2.31 4.56 2.62 4.56ZM5.38 9.66L5.38 9.66L5.38 9.66Q5.01 10.44 4.48 10.44L4.48 10.44L4.48 10.44Q4.30 10.44 4.08 10.35L4.08 10.35L4.08 10.35Q3.86 10.25 3.67 9.93L3.67 9.93L3.67 9.93Q3.54 9.69 3.47 9.40L3.47 9.40L3.47 9.40Q3.40 9.11 3.40 8.75L3.40 8.75L3.40 8.75Q3.40 8.44 3.53 7.07L3.53 7.07L3.53 7.07Q3.60 6.40 3.63 5.99L3.63 5.99L3.63 5.99Q3.65 5.57 3.65 5.43L3.65 5.43L3.65 5.43Q3.65 5.29 3.65 5.22L3.65 5.22L3.65 5.22Q3.65 5.15 3.70 5.12L3.70 5.12L3.70 5.12Q3.74 5.10 3.84 5.11L3.84 5.11L3.84 5.11Q3.95 5.12 4.16 5.17L4.16 5.17L4.16 5.17Q4.55 5.24 4.66 5.35L4.66 5.35L4.66 5.35Q4.76 5.46 4.76 5.54L4.76 5.54L4.76 5.54Q4.76 5.59 4.74 5.67L4.74 5.67L4.74 5.67Q4.72 5.75 4.69 5.85L4.69 5.85L4.69 5.85Q4.66 5.95 4.64 6.03L4.64 6.03L4.64 6.03Q4.62 6.12 4.62 6.15L4.62 6.15L4.62 6.15Q4.59 6.26 4.54 6.55L4.54 6.55L4.54 6.55Q4.49 6.85 4.42 7.17L4.42 7.17L4.42 7.17Q4.34 7.62 4.30 7.99L4.30 7.99L4.30 7.99Q4.27 8.36 4.27 8.78L4.27 8.78L4.27 8.78Q4.27 8.85 4.28 8.97L4.28 8.97L4.28 8.97Q4.28 9.10 4.30 9.23L4.30 9.23L4.30 9.23Q4.33 9.37 4.38 9.46L4.38 9.46L4.38 9.46Q4.42 9.56 4.51 9.58L4.51 9.58L4.51 9.58Q4.54 9.56 4.62 9.44L4.62 9.44L4.62 9.44Q4.70 9.32 4.84 8.96L4.84 8.96L4.84 8.96Q4.87 8.88 5.04 8.50L5.04 8.50L5.04 8.50Q5.21 8.12 5.42 7.45L5.42 7.45L5.42 7.45Q5.49 7.22 5.60 6.90L5.60 6.90L5.60 6.90Q5.71 6.58 5.84 6.13L5.84 6.13L5.84 6.13Q5.85 6.08 5.88 5.99L5.88 5.99L5.88 5.99Q5.91 5.89 5.95 5.81L5.95 5.81L5.95 5.81Q5.99 5.73 6.06 5.67L6.06 5.67L6.06 5.67Q6.13 5.61 6.24 5.61L6.24 5.61L6.24 5.61Q6.29 5.61 6.35 5.68L6.35 5.68L6.35 5.68Q6.41 5.74 6.41 6.03L6.41 6.03L6.41 6.03Q6.41 6.10 6.40 6.22L6.40 6.22L6.40 6.22Q6.38 6.34 6.33 6.59L6.33 6.59L6.33 6.59Q6.27 6.83 6.17 7.21L6.17 7.21L6.17 7.21Q6.06 7.59 5.88 8.18L5.88 8.18L5.88 8.18Q5.68 8.81 5.56 9.16L5.56 9.16L5.56 9.16Q5.45 9.52 5.38 9.66ZM4.51 4.55L4.51 4.55L4.51 4.55Q4.14 4.55 3.93 4.27L3.93 4.27L3.93 4.27Q3.71 4.00 3.71 3.72L3.71 3.72L3.71 3.72Q3.71 3.49 3.93 3.26L3.93 3.26L3.93 3.26Q4.19 3.04 4.38 3.04L4.38 3.04L4.38 3.04Q4.72 3.04 4.90 3.23L4.90 3.23L4.90 3.23Q5.08 3.43 5.08 3.79L5.08 3.79L5.08 3.79Q5.08 4.05 5.02 4.20L5.02 4.20L5.02 4.20Q4.96 4.35 4.86 4.43L4.86 4.43L4.86 4.43Q4.76 4.51 4.66 4.53L4.66 4.53L4.66 4.53Q4.56 4.55 4.51 4.55ZM10.49 5.60L10.49 5.60L10.49 5.60Q10.54 5.60 10.68 5.66L10.68 5.66L10.68 5.66Q10.81 5.73 10.81 6.02L10.81 6.02L10.81 6.02Q10.81 6.48 10.26 8.12L10.26 8.12L10.26 8.12Q9.91 9.20 9.60 9.80L9.60 9.80L9.60 9.80Q9.27 10.44 8.92 10.44L8.92 10.44L8.92 10.44Q8.18 10.44 7.97 9.21L7.97 9.21L7.97 9.21Q7.92 9.02 7.89 8.68L7.89 8.68L7.89 8.68Q7.85 8.34 7.83 7.85L7.83 7.85L7.83 7.85Q7.74 8.20 7.63 8.63L7.63 8.63L7.63 8.63Q7.52 9.06 7.38 9.58L7.38 9.58L7.38 9.58Q7.35 9.65 7.31 9.78L7.31 9.78L7.31 9.78Q7.27 9.91 7.20 10.04L7.20 10.04L7.20 10.04Q7.13 10.18 7.01 10.28L7.01 10.28L7.01 10.28Q6.89 10.37 6.72 10.37L6.72 10.37L6.72 10.37Q6.64 10.37 6.52 10.35L6.52 10.35L6.52 10.35Q6.40 10.32 6.29 10.23L6.29 10.23L6.29 10.23Q6.17 10.15 6.08 10.00L6.08 10.00L6.08 10.00Q5.99 9.84 5.95 9.58L5.95 9.58L5.95 9.56L5.95 9.56Q5.94 9.28 5.92 8.99L5.92 8.99L5.92 8.99Q5.91 8.71 5.89 8.43L5.89 8.43L5.89 8.43Q5.85 7.81 5.89 7.21L5.89 7.21L5.89 7.21Q5.91 6.99 5.92 6.87L5.92 6.87L5.92 6.87Q5.92 6.76 5.94 6.71L5.94 6.71L5.82 6.47L5.82 6.47Q5.80 6.41 5.80 6.37L5.80 6.37L5.80 6.37Q5.82 6.06 5.85 5.94L5.85 5.94L5.85 5.94Q5.87 5.82 5.89 5.77L5.89 5.77L5.89 5.77Q6.02 5.40 6.45 5.40L6.45 5.40L6.45 5.40Q6.69 5.40 6.82 5.53L6.82 5.53L6.82 5.53Q6.94 5.66 6.94 5.87L6.94 5.87L6.94 5.87Q6.94 5.89 6.93 5.96L6.93 5.96L6.93 5.96Q6.92 6.02 6.85 6.27L6.85 6.27L6.85 6.27Q6.80 6.41 6.78 6.52L6.78 6.52L6.78 6.52Q6.75 6.64 6.75 6.75L6.75 6.75L6.75 6.75Q6.75 6.90 6.75 7.13L6.75 7.13L6.75 7.13Q6.75 7.35 6.73 7.63L6.73 7.63L6.73 7.63Q6.73 7.91 6.73 8.09L6.73 8.09L6.73 8.09Q6.72 8.27 6.72 8.36L6.72 8.36L6.72 8.36Q6.72 8.83 6.76 9.02L6.76 9.02L6.76 9.00L6.76 9.00Q6.87 8.60 6.94 8.32L6.94 8.32L6.94 8.32Q7.01 8.04 7.08 7.85L7.08 7.85L7.08 7.85Q7.50 6.55 7.59 5.57L7.59 5.57L7.59 5.57Q7.63 4.83 7.88 4.68L7.88 4.68L7.88 4.68Q7.94 4.63 8.01 4.63L8.01 4.63L8.01 4.63Q8.60 4.68 8.78 4.89L8.78 4.89L8.78 4.89Q8.96 5.11 8.96 5.32L8.96 5.32L8.96 5.36L8.96 5.36Q8.95 5.39 8.92 5.59L8.92 5.59L8.92 5.59Q8.89 5.78 8.79 6.36L8.79 6.36L8.79 6.36Q8.72 6.86 8.68 7.29L8.68 7.29L8.68 7.29Q8.64 7.71 8.64 8.08L8.64 8.08L8.64 8.08Q8.64 8.54 8.67 8.82L8.67 8.82L8.67 8.82Q8.69 9.10 8.74 9.25L8.74 9.25L8.74 9.25Q8.78 9.39 8.81 9.44L8.81 9.44L8.81 9.44Q8.85 9.49 8.86 9.49L8.86 9.49L8.86 9.49Q8.88 9.48 8.93 9.43L8.93 9.43L8.93 9.43Q8.97 9.38 9.06 9.23L9.06 9.23L9.06 9.23Q9.14 9.07 9.27 8.79L9.27 8.79L9.27 8.79Q9.39 8.51 9.55 8.05L9.55 8.05L9.55 8.05Q9.70 7.56 9.83 7.10L9.83 7.10L9.83 7.10Q9.95 6.64 10.05 6.22L10.05 6.22L10.05 6.22Q10.11 5.98 10.20 5.79L10.20 5.79L10.20 5.79Q10.29 5.60 10.49 5.60ZM14.50 11.13L14.50 11.13L14.50 11.13Q14.78 11.26 14.78 11.56L14.78 11.56L14.78 11.56Q14.78 11.66 14.71 11.80L14.71 11.80L14.64 11.91L14.50 11.90L14.50 11.90Q14.10 11.83 13.91 11.81L13.91 11.81L13.91 11.81Q13.72 11.79 13.65 11.79L13.65 11.79L13.65 11.79Q13.58 11.79 13.42 11.82L13.42 11.82L13.42 11.82Q13.26 11.86 12.94 11.97L12.94 11.97L12.94 11.97Q12.95 12.03 12.95 12.12L12.95 12.12L12.95 12.12Q12.95 12.21 12.96 12.33L12.96 12.33L12.96 12.33Q12.98 12.57 12.98 12.72L12.98 12.72L12.98 12.72Q12.98 12.87 12.98 12.96L12.98 12.96L12.98 12.96Q12.98 14.73 12.40 15.64L12.40 15.64L12.40 15.64Q11.79 16.59 10.58 16.59L10.58 16.59L10.58 16.59Q9.77 16.59 9.23 16.04L9.23 16.04L9.23 16.04Q8.68 15.48 8.68 14.67L8.68 14.67L8.68 14.67Q8.68 13.47 10.14 12.43L10.14 12.43L10.14 12.43Q11.16 11.70 12.08 11.48L12.08 11.48L12.08 11.48Q12.08 11.28 12.06 10.99L12.06 10.99L12.06 10.99Q12.04 10.70 12.01 10.32L12.01 10.32L12.01 10.32Q11.98 10.16 11.98 10.05L11.98 10.05L11.98 10.05Q11.97 9.94 11.96 9.83L11.96 9.83L11.96 9.83Q11.93 9.90 11.91 9.95L11.91 9.95L11.91 9.95Q11.89 10.00 11.86 10.07L11.86 10.07L11.84 10.07L11.84 10.07Q11.55 10.67 11.06 10.67L11.06 10.67L11.06 10.67Q10.53 10.67 10.19 10.12L10.19 10.12L10.19 10.12Q10.01 9.79 9.94 9.35L9.94 9.35L9.94 9.35Q9.79 9.74 9.66 9.98L9.66 9.98L9.66 9.98Q9.53 10.22 9.42 10.35L9.42 10.35L9.42 10.35Q9.31 10.49 9.22 10.53L9.22 10.53L9.22 10.53Q9.13 10.57 9.04 10.57L9.04 10.57L9.04 10.57Q8.68 10.57 8.59 10.44L8.59 10.44L8.59 10.44Q8.50 10.32 8.50 10.22L8.50 10.22L8.50 10.22Q8.50 10.07 8.56 9.99L8.56 9.99L8.56 9.99Q8.62 9.91 8.68 9.88L8.68 9.88L8.69 9.87L8.90 9.76L8.93 9.76L8.93 9.76Q8.95 9.74 8.99 9.68L8.99 9.68L8.99 9.68Q9.03 9.62 9.11 9.46L9.11 9.46L9.11 9.46Q9.18 9.31 9.28 9.05L9.28 9.05L9.28 9.05Q9.38 8.79 9.52 8.39L9.52 8.39L9.52 8.39Q9.87 7.32 10.15 6.17L10.15 6.17L10.15 6.17Q10.15 6.15 10.16 6.13L10.16 6.13L10.16 6.13Q10.16 6.12 10.16 6.09L10.16 6.09L10.16 6.09Q10.22 5.73 10.24 5.60L10.24 5.60L10.24 5.60Q10.26 5.47 10.29 5.42L10.29 5.42L10.29 5.42Q10.32 5.35 10.42 5.25L10.42 5.25L10.42 5.25Q10.51 5.15 10.72 5.15L10.72 5.15L10.72 5.15Q10.93 5.15 11.06 5.28L11.06 5.28L11.06 5.28Q11.09 5.32 11.12 5.40L11.12 5.40L11.12 5.40Q11.16 5.47 11.16 5.59L11.16 5.59L11.16 5.59Q11.05 6.37 10.99 7.11L10.99 7.11L10.99 7.11Q10.86 8.27 10.86 8.92L10.86 8.92L10.86 8.92Q10.86 9.51 10.94 9.71L10.94 9.71L10.94 9.71Q11.02 9.91 11.05 9.93L11.05 9.93L11.05 9.93Q11.07 9.90 11.15 9.80L11.15 9.80L11.15 9.80Q11.23 9.70 11.35 9.39L11.35 9.39L11.35 9.39Q11.47 9.11 11.59 8.73L11.59 8.73L11.59 8.73Q11.70 8.34 11.83 7.84L11.83 7.84L11.83 7.84Q11.89 7.39 11.97 6.72L11.97 6.72L11.97 6.72Q12.05 6.05 12.18 5.12L12.18 5.12L12.18 5.12Q12.25 4.61 12.77 4.56L12.77 4.56L12.77 4.56Q12.78 4.55 12.84 4.55L12.84 4.55L12.84 4.55Q13.02 4.55 13.12 4.66L13.12 4.66L13.12 4.66Q13.22 4.77 13.22 4.96L13.22 4.96L13.22 4.96Q13.22 5.15 13.14 5.52L13.14 5.52L13.14 5.52Q13.06 5.89 12.89 6.48L12.89 6.48L12.89 6.48Q12.87 6.57 12.85 6.75L12.85 6.75L12.85 6.75Q12.82 6.94 12.81 7.29L12.81 7.29L12.81 7.29Q12.80 7.64 12.79 8.17L12.79 8.17L12.79 8.17Q12.78 8.69 12.78 9.46L12.78 9.46L12.78 9.46Q12.80 9.79 12.80 10.12L12.80 10.12L12.80 10.12Q12.81 10.46 12.84 10.81L12.84 10.81L12.84 10.81Q12.84 10.96 12.85 11.07L12.85 11.07L12.85 11.07Q12.85 11.17 12.85 11.24L12.85 11.24L12.85 11.24Q12.92 11.21 13.01 11.19L13.01 11.19L13.01 11.19Q13.09 11.17 13.20 11.14L13.20 11.14L13.20 11.14Q13.64 11.02 13.92 11.02L13.92 11.02L13.92 11.02Q14.28 11.02 14.50 11.13ZM12.12 13.05L12.12 12.24L12.12 12.24Q12.00 12.28 11.87 12.33L11.87 12.33L11.87 12.33Q11.75 12.38 11.63 12.43L11.63 12.43L11.62 12.43L11.62 12.43Q10.79 12.80 10.26 13.36L10.26 13.36L10.26 13.36Q9.55 14.06 9.55 14.81L9.55 14.81L9.55 14.81Q9.55 15.25 9.83 15.57L9.83 15.57L9.83 15.57Q10.09 15.88 10.44 15.88L10.44 15.88L10.44 15.88Q11.14 15.88 11.61 15.11L11.61 15.11L11.61 15.11Q12.12 14.28 12.12 13.05L12.12 13.05ZM17.32 5.45L17.32 5.45L17.32 5.45Q17.33 5.45 17.39 5.45L17.39 5.45L17.39 5.45Q17.44 5.46 17.51 5.50L17.51 5.50L17.51 5.50Q17.57 5.54 17.61 5.63L17.61 5.63L17.61 5.63Q17.65 5.71 17.65 5.87L17.65 5.87L17.65 5.87Q17.65 6.19 17.50 6.78L17.50 6.78L17.50 6.78Q17.35 7.36 17.04 8.26L17.04 8.26L17.04 8.26Q16.66 9.41 16.28 9.95L16.28 9.95L16.28 9.95Q15.89 10.49 15.47 10.49L15.47 10.49L15.47 10.49Q14.81 10.49 14.31 9.74L14.31 9.74L14.31 9.74Q13.75 8.89 13.75 7.39L13.75 7.39L13.75 7.39Q13.75 6.72 13.83 5.84L13.83 5.84L13.83 5.84Q13.90 4.97 14.06 3.88L14.06 3.88L14.06 3.88Q14.38 1.78 14.69 0.84L14.69 0.84L14.69 0.84Q14.73 0.29 14.87 0.03L14.87 0.03L14.87 0.03Q14.98-0.21 15.13-0.28L15.13-0.28L15.13-0.28Q15.29-0.35 15.40-0.35L15.40-0.35L15.40-0.35Q15.60-0.35 15.81-0.28L15.81-0.28L15.81-0.28Q16.02-0.21 16.19-0.02L16.19-0.02L16.19-0.02Q16.37 0.17 16.48 0.50L16.48 0.50L16.48 0.50Q16.59 0.83 16.59 1.36L16.59 1.36L16.59 1.36Q16.59 2.67 16.09 4.35L16.09 4.35L16.09 4.35Q15.58 6.06 14.91 7.08L14.91 7.08L14.91 7.08Q14.88 7.13 14.85 7.17L14.85 7.17L14.85 7.17Q14.83 7.22 14.76 7.29L14.76 7.29L14.76 7.29Q14.66 7.42 14.63 7.49L14.63 7.49L14.63 7.49Q14.60 7.55 14.60 7.62L14.60 7.62L14.60 7.62Q14.60 8.62 15.05 9.20L15.05 9.20L15.05 9.20Q15.23 9.44 15.34 9.50L15.34 9.50L15.34 9.50Q15.44 9.56 15.50 9.56L15.50 9.56L15.50 9.56Q15.55 9.55 15.61 9.48L15.61 9.48L15.61 9.48Q15.67 9.41 15.75 9.29L15.75 9.29L15.75 9.29Q15.83 9.17 15.95 8.93L15.95 8.93L15.95 8.93Q16.30 8.19 16.72 6.76L16.72 6.76L16.72 6.76Q16.77 6.54 16.82 6.33L16.82 6.33L16.82 6.33Q16.87 6.12 16.93 5.91L16.93 5.91L16.93 5.91Q16.95 5.80 17.04 5.62L17.04 5.62L17.04 5.62Q17.12 5.45 17.32 5.45ZM15.68 1.06L15.68 1.06L15.68 1.06Q15.26 2.49 15.00 3.65L15.00 3.65L15.00 3.65Q14.74 4.80 14.66 5.71L14.66 5.71L14.66 5.71Q14.81 5.36 14.97 4.95L14.97 4.95L14.97 4.95Q15.12 4.54 15.27 4.05L15.27 4.05L15.27 4.05Q15.72 2.51 15.72 1.78L15.72 1.78L15.72 1.78Q15.72 1.32 15.68 1.06Z"></path></g><!----><!----></svg>